<?xml version="1.0" encoding="UTF-8"?>
<svg width="178px" height="36px" viewBox="0 0 178 36" version="1.1" xmlns="http://www.w3.org/2000/svg" xmlns:xlink="http://www.w3.org/1999/xlink">
    <!-- Generator: sketchtool 53 (72520) - https://sketchapp.com -->
    <title>18AEDC79-6E9F-488F-8DA1-3FDDCBB89366</title>
    <desc>Created with sketchtool.</desc>
    <defs>
        <ellipse id="path-1" cx="18.0507042" cy="18" rx="18.0507042" ry="18"></ellipse>
    </defs>
    <g id="Daryn" stroke="none" stroke-width="1" fill="none" fill-rule="evenodd">
        <g id="01a_Home" transform="translate(-136.000000, -44.000000)">
            <g id="HH-3">
                <g id="NAVBAR">
                    <g id="icn.logo.developertown" transform="translate(136.000000, 44.000000)">
                        <path d="M144.892,23.62 C145.437535,24.1640027 146.125126,24.436 146.954794,24.436 C147.784462,24.436 148.469212,24.1611694 149.009065,23.6115 C149.548917,23.0618306 149.818839,22.350671 149.818839,21.478 C149.818839,20.605329 149.548917,19.8941694 149.009065,19.3445 C148.469212,18.7948306 147.784462,18.52 146.954794,18.52 C146.125126,18.52 145.440376,18.7948306 144.900524,19.3445 C144.360671,19.8941694 144.090749,20.605329 144.090749,21.478 C144.090749,22.350671 144.35783,23.0646639 144.892,23.62 Z M150.364372,24.793 C149.455147,25.6883378 148.318632,26.136 146.954794,26.136 C145.590957,26.136 144.454442,25.6855045 143.545217,24.7845 C142.635992,23.8834955 142.181386,22.7813398 142.181386,21.478 C142.181386,20.1746601 142.635992,19.0725045 143.545217,18.1715 C144.454442,17.2704955 145.590957,16.82 146.954794,16.82 C148.318632,16.82 149.455147,17.2704955 150.364372,18.1715 C151.273597,19.0725045 151.728203,20.1746601 151.728203,21.478 C151.728203,22.7813398 151.273597,23.8863288 150.364372,24.793 Z M158.138208,26 L155.956079,26 L152.819268,16.956 L154.796823,16.956 L157.047144,23.79 L159.297465,16.956 L161.27502,16.956 L163.525341,23.79 L165.775662,16.956 L167.753217,16.956 L164.616406,26 L162.434276,26 L160.286242,19.812 L158.138208,26 Z M171.350321,21.104 L171.350321,26 L169.440958,26 L169.440958,16.956 L171.350321,16.956 L171.350321,18.605 C171.657185,18.0496639 172.080536,17.6133349 172.620389,17.296 C173.160241,16.9786651 173.742705,16.82 174.367797,16.82 C175.390676,16.82 176.21749,17.1316635 176.848265,17.755 C177.47904,18.3783364 177.794423,19.2793274 177.794423,20.458 L177.794423,26 L175.885059,26 L175.885059,21.036 C175.885059,19.3699917 175.191785,18.537 173.805217,18.537 C173.146029,18.537 172.572089,18.7551645 172.08338,19.1915 C171.594672,19.6278355 171.350321,20.2653291 171.350321,21.104 Z" id="own" fill="#FFFFFF"></path>
                        <path d="M48.6069363,12.7792 C51.020127,12.7792 52.8749186,13.3647941 54.1713668,14.536 C55.4678149,15.7072059 56.1160293,17.3359896 56.1160293,19.4224 C56.1160293,21.5088104 55.4870688,23.1599939 54.229129,24.376 C52.9711892,25.5920061 51.0458,26.2 48.4529037,26.2 L43.9859561,26.2 L43.9859561,12.7792 L48.6069363,12.7792 Z M53.8247932,19.48 C53.8247932,16.4079846 52.0598531,14.872 48.52992,14.872 L46.257938,14.872 L46.257938,24.0688 L48.7802231,24.0688 C50.4104104,24.0688 51.6587044,23.6816039 52.5251425,22.9072 C53.3915807,22.1327961 53.8247932,20.9904076 53.8247932,19.48 Z M66.994587,22.511 L59.885618,22.511 C59.9310793,23.1683366 60.2322556,23.6981647 60.7891561,24.1005 C61.3460565,24.5028353 61.9825046,24.704 62.6985194,24.704 C63.8350509,24.704 64.6988019,24.3470036 65.2897983,23.633 L66.3808631,24.823 C65.403446,25.8316717 64.1305498,26.336 62.5621363,26.336 C61.2892211,26.336 60.206691,25.9138376 59.3145138,25.0695 C58.4223366,24.2251624 57.9762546,23.0918404 57.9762546,21.6695 C57.9762546,20.2471596 58.4308604,19.1166709 59.3400856,18.278 C60.2493108,17.4393291 61.3204757,17.02 62.5536124,17.02 C63.7867491,17.02 64.8351837,17.391163 65.6989476,18.1335 C66.5627115,18.875837 66.994587,19.8986601 66.994587,21.202 L66.994587,22.511 Z M59.885618,21.015 L65.0852237,21.015 C65.0852237,20.2556629 64.8465556,19.672002 64.3692124,19.264 C63.8918692,18.855998 63.3037229,18.652 62.6047561,18.652 C61.9057892,18.652 61.2778649,18.8644979 60.7209645,19.2895 C60.1640641,19.7145021 59.885618,20.289663 59.885618,21.015 Z M71.4952293,26.2 L67.8469814,17.156 L69.8245363,17.156 L72.5862941,23.99 L75.3480518,17.156 L77.3256068,17.156 L73.6773589,26.2 L71.4952293,26.2 Z M87.281573,22.511 L80.1726039,22.511 C80.2180652,23.1683366 80.5192415,23.6981647 81.076142,24.1005 C81.6330424,24.5028353 82.2694905,24.704 82.9855054,24.704 C84.1220369,24.704 84.9857878,24.3470036 85.5767842,23.633 L86.667849,24.823 C85.6904319,25.8316717 84.4175357,26.336 82.8491223,26.336 C81.576207,26.336 80.4936769,25.9138376 79.6014997,25.0695 C78.7093225,24.2251624 78.2632406,23.0918404 78.2632406,21.6695 C78.2632406,20.2471596 78.7178463,19.1166709 79.6270715,18.278 C80.5362968,17.4393291 81.6074616,17.02 82.8405983,17.02 C84.073735,17.02 85.1221696,17.391163 85.9859335,18.1335 C86.8496975,18.875837 87.281573,19.8986601 87.281573,21.202 L87.281573,22.511 Z M80.1726039,21.015 L85.3722096,21.015 C85.3722096,20.2556629 85.1335415,19.672002 84.6561983,19.264 C84.1788551,18.855998 83.5907088,18.652 82.891742,18.652 C82.1927751,18.652 81.5648509,18.8644979 81.0079504,19.2895 C80.45105,19.7145021 80.1726039,20.289663 80.1726039,21.015 Z M91.2878265,26.2 L89.3784631,26.2 L89.3784631,13.586 L91.2878265,13.586 L91.2878265,26.2 Z M96.1635223,23.82 C96.7090574,24.3640027 97.3966486,24.636 98.2263166,24.636 C99.0559846,24.636 99.7407346,24.3611694 100.280587,23.8115 C100.82044,23.2618306 101.090362,22.550671 101.090362,21.678 C101.090362,20.805329 100.82044,20.0941694 100.280587,19.5445 C99.7407346,18.9948306 99.0559846,18.72 98.2263166,18.72 C97.3966486,18.72 96.7118987,18.9948306 96.1720462,19.5445 C95.6321937,20.0941694 95.3622715,20.805329 95.3622715,21.678 C95.3622715,22.550671 95.6293524,23.2646639 96.1635223,23.82 Z M101.635894,24.993 C100.726669,25.8883378 99.5901544,26.336 98.2263166,26.336 C96.8624788,26.336 95.7259644,25.8855045 94.8167392,24.9845 C93.9075139,24.0834955 93.4529082,22.9813398 93.4529082,21.678 C93.4529082,20.3746601 93.9075139,19.2725045 94.8167392,18.3715 C95.7259644,17.4704955 96.8624788,17.02 98.2263166,17.02 C99.5901544,17.02 100.726669,17.4704955 101.635894,18.3715 C102.545119,19.2725045 102.999725,20.3746601 102.999725,21.678 C102.999725,22.9813398 102.545119,24.0863288 101.635894,24.993 Z M110.023455,17.02 C111.239543,17.02 112.279454,17.4393291 113.143218,18.278 C114.006982,19.1166709 114.438857,20.232993 114.438857,21.627 C114.438857,23.021007 114.009823,24.154329 113.151742,25.027 C112.293661,25.899671 111.293528,26.336 110.151314,26.336 C109.0091,26.336 107.983395,25.8373383 107.07417,24.84 L107.07417,29.498 L105.164807,29.498 L105.164807,17.156 L107.07417,17.156 L107.07417,18.737 C107.824281,17.5923276 108.807366,17.02 110.023455,17.02 Z M107.040074,21.695 C107.040074,22.5563376 107.301473,23.2618306 107.824277,23.8115 C108.347082,24.3611694 108.98353,24.636 109.733641,24.636 C110.483751,24.636 111.137247,24.3640027 111.694148,23.82 C112.251048,23.2759973 112.529494,22.5705043 112.529494,21.7035 C112.529494,20.8364957 112.256731,20.1168362 111.711195,19.5445 C111.16566,18.9721638 110.512165,18.686 109.750688,18.686 C108.989212,18.686 108.347082,18.9721638 107.824277,19.5445 C107.301473,20.1168362 107.040074,20.8336624 107.040074,21.695 Z M125.059691,22.511 L117.950722,22.511 C117.996184,23.1683366 118.29736,23.6981647 118.85426,24.1005 C119.411161,24.5028353 120.047609,24.704 120.763624,24.704 C121.900155,24.704 122.763906,24.3470036 123.354903,23.633 L124.445967,24.823 C123.46855,25.8316717 122.195654,26.336 120.627241,26.336 C119.354325,26.336 118.271795,25.9138376 117.379618,25.0695 C116.487441,24.2251624 116.041359,23.0918404 116.041359,21.6695 C116.041359,20.2471596 116.495965,19.1166709 117.40519,18.278 C118.314415,17.4393291 119.38558,17.02 120.618717,17.02 C121.851853,17.02 122.900288,17.391163 123.764052,18.1335 C124.627816,18.875837 125.059691,19.8986601 125.059691,21.202 L125.059691,22.511 Z M117.950722,21.015 L123.150328,21.015 C123.150328,20.2556629 122.91166,19.672002 122.434317,19.264 C121.956973,18.855998 121.368827,18.652 120.66986,18.652 C119.970893,18.652 119.342969,18.8644979 118.786069,19.2895 C118.229168,19.7145021 117.950722,20.289663 117.950722,21.015 Z M131.912942,18.941 C130.969621,18.941 130.259299,19.2469969 129.781956,19.859 C129.304613,20.4710031 129.065945,21.2926615 129.065945,22.324 L129.065945,26.2 L127.156581,26.2 L127.156581,17.156 L129.065945,17.156 L129.065945,18.975 C129.372808,18.4083305 129.790477,17.9436685 130.318965,17.581 C130.847452,17.2183315 131.407185,17.0313334 131.998181,17.02 L132.015229,18.941 L131.912942,18.941 Z M139.494438,14.8528 L139.494438,26.2 L137.222456,26.2 L137.222456,14.8528 L133.14059,14.8528 L133.14059,12.7792 L143.576304,12.7792 L143.576304,14.8528 L139.494438,14.8528 Z" id="DeveloperT" fill="#FFFFFF"></path>
                        <mask id="mask-2" fill="white">
                            <use xlink:href="#path-1"></use>
                        </mask>
                        <use id="Mask" fill="#50B4E5" xlink:href="#path-1"></use>
                        <g id="DT-Icon-Elements" mask="url(#mask-2)" fill="#FFFFFF">
                            <g transform="translate(9.202320, 7.764706)">
                                <path d="M5.02768202,7.12780518 C5.02768202,6.89311286 5.21333557,6.70285714 5.46163702,6.70285714 L6.95969504,6.70285714 C7.19936176,6.70285714 7.39365004,6.89648426 7.39365004,7.12780518 L7.39365004,19.975052 C7.39365004,20.2097443 7.20799649,20.4 6.95969504,20.4 L5.46163702,20.4 C5.2219703,20.4 5.02768202,20.2063729 5.02768202,19.975052 L5.02768202,7.12780518 Z" id="Rectangle"></path>
                                <rect id="Rectangle" x="1.77447601" y="9.90857143" width="13.9000621" height="2.33142857" rx="0.432000006"></rect>
                                <rect id="Rectangle" x="1.77447601" y="14.8628571" width="13.9000621" height="2.33142857" rx="0.432000006"></rect>
                                <path d="M10.055364,7.12780518 C10.055364,6.89311286 10.2410176,6.70285714 10.489319,6.70285714 L11.9873771,6.70285714 C12.2270438,6.70285714 12.4213321,6.89648426 12.4213321,7.12780518 L12.4213321,19.975052 C12.4213321,20.2097443 12.2356785,20.4 11.9873771,20.4 L10.489319,20.4 C10.2496523,20.4 10.055364,20.2063729 10.055364,19.975052 L10.055364,7.12780518 Z" id="Rectangle"></path>
                                <path d="M1.62933039,7.11862581 C1.7911601,7.29138201 2.09049317,7.32337019 2.28806257,7.19640159 L8.35879348,3.29502699 C8.5607715,3.16522517 8.89630652,3.16805838 9.0981709,3.29502699 L15.3008742,7.19640159 C15.5072431,7.32620341 15.8137782,7.2942211 15.9836282,7.12685067 L17.139924,5.98743504 C17.3106297,5.81922131 17.282521,5.57718974 17.0852404,5.4519826 L9.08828068,0.376588833 C8.88737405,0.249080341 8.56083587,0.24860097 8.3559798,0.377377232 L0.516400245,5.30547991 C0.312868268,5.43342382 0.275488939,5.67337521 0.440891623,5.84994562 L1.62933039,7.11862581 Z" id="Path-2"></path>
                            </g>
                        </g>
                    </g>
                </g>
            </g>
        </g>
    </g>
</svg>